<svg width="1749" height="439" viewBox="0 0 1749 439" fill="none" xmlns="http://www.w3.org/2000/svg">
<path d="M520.894 315.304C501.385 315.304 486.099 309.928 475.039 299.174C463.978 288.421 458.448 273.673 458.448 254.931C458.448 242.795 460.829 232.196 465.591 223.132C470.353 214.068 476.959 207.002 485.408 201.932C494.011 196.863 503.996 194.328 515.364 194.328C526.578 194.328 535.949 196.709 543.477 201.471C551.004 206.234 556.688 212.916 560.529 221.519C564.523 230.122 566.52 240.184 566.52 251.705V259.31H481.721V244.101H546.011L542.094 247.327C542.094 236.574 539.79 228.355 535.181 222.671C530.726 216.987 524.197 214.145 515.595 214.145C506.07 214.145 498.696 217.525 493.473 224.284C488.404 231.043 485.869 240.491 485.869 252.627V255.623C485.869 268.22 488.941 277.667 495.086 283.966C501.385 290.111 510.218 293.183 521.586 293.183C528.191 293.183 534.336 292.338 540.02 290.648C545.858 288.805 551.388 285.886 556.611 281.892L565.137 301.248C559.607 305.703 553.001 309.159 545.32 311.617C537.639 314.075 529.497 315.304 520.894 315.304ZM593.215 313V150.546H652.206C670.794 150.546 686.463 153.772 699.214 160.224C712.118 166.523 721.873 175.74 728.478 187.876C735.084 199.858 738.387 214.452 738.387 231.658C738.387 248.71 735.084 263.304 728.478 275.44C721.873 287.576 712.118 296.87 699.214 303.322C686.463 309.774 670.794 313 652.206 313H593.215ZM622.941 288.344H650.362C670.026 288.344 684.62 283.658 694.144 274.288C703.669 264.917 708.431 250.707 708.431 231.658C708.431 212.455 703.669 198.245 694.144 189.028C684.62 179.657 670.026 174.972 650.362 174.972H622.941V288.344ZM766.435 313V196.632H795.239V313H766.435ZM764.822 174.741V146.629H796.852V174.741H764.822ZM880.439 364.617C869.685 364.617 859.93 363.464 851.174 361.16C842.571 358.856 834.89 355.322 828.131 350.56L834.352 329.821C838.807 332.74 843.416 335.121 848.178 336.965C852.94 338.808 857.856 340.191 862.926 341.113C867.995 342.034 873.142 342.495 878.365 342.495C889.118 342.495 897.106 339.807 902.329 334.43C907.706 329.207 910.395 321.68 910.395 311.848V283.966H912.699C910.241 291.954 905.248 298.329 897.721 303.091C890.347 307.854 881.821 310.235 872.143 310.235C861.697 310.235 852.556 307.931 844.722 303.322C837.041 298.56 831.05 291.8 826.748 283.044C822.447 274.288 820.296 263.995 820.296 252.166C820.296 240.337 822.447 230.122 826.748 221.519C831.05 212.763 837.041 206.08 844.722 201.471C852.556 196.709 861.697 194.328 872.143 194.328C881.975 194.328 890.501 196.709 897.721 201.471C905.095 206.08 910.01 212.379 912.468 220.367L910.395 218.984L912.699 196.632H940.581C939.966 201.395 939.506 206.234 939.198 211.15C938.891 216.065 938.738 220.904 938.738 225.667V308.391C938.738 326.672 933.745 340.575 923.76 350.099C913.928 359.777 899.487 364.617 880.439 364.617ZM879.978 288.113C889.195 288.113 896.492 285.041 901.869 278.896C907.399 272.598 910.164 263.688 910.164 252.166C910.164 240.645 907.399 231.812 901.869 225.667C896.492 219.522 889.195 216.449 879.978 216.449C870.607 216.449 863.156 219.522 857.626 225.667C852.096 231.812 849.33 240.645 849.33 252.166C849.33 263.688 852.096 272.598 857.626 278.896C863.156 285.041 870.607 288.113 879.978 288.113ZM969.862 313V196.632H998.666V313H969.862ZM968.249 174.741V146.629H1000.28V174.741H968.249Z" fill="#282828"/>
<path d="M1032.97 313V150.547H1062.7V218.293H1145.88V150.547H1175.61V313H1145.88V242.949H1062.7V313H1032.97ZM1265.34 315.304C1245.83 315.304 1230.55 309.928 1219.49 299.174C1208.43 288.421 1202.9 273.673 1202.9 254.932C1202.9 242.796 1205.28 232.196 1210.04 223.132C1214.8 214.069 1221.41 207.002 1229.86 201.933C1238.46 196.863 1248.44 194.329 1259.81 194.329C1271.03 194.329 1280.4 196.71 1287.92 201.472C1295.45 206.234 1301.14 212.917 1304.98 221.519C1308.97 230.122 1310.97 240.184 1310.97 251.706V259.31H1226.17V244.101H1290.46L1286.54 247.327C1286.54 236.574 1284.24 228.355 1279.63 222.671C1275.17 216.987 1268.65 214.146 1260.04 214.146C1250.52 214.146 1243.14 217.525 1237.92 224.284C1232.85 231.044 1230.32 240.491 1230.32 252.627V255.623C1230.32 268.22 1233.39 277.667 1239.53 283.966C1245.83 290.111 1254.67 293.183 1266.03 293.183C1272.64 293.183 1278.78 292.338 1284.47 290.648C1290.31 288.805 1295.84 285.886 1301.06 281.892L1309.58 301.248C1304.05 305.703 1297.45 309.159 1289.77 311.617C1282.09 314.075 1273.95 315.304 1265.34 315.304ZM1380.29 315.304C1370.15 315.304 1361.24 312.923 1353.56 308.161C1345.88 303.245 1339.89 296.255 1335.59 287.192C1331.29 278.128 1329.14 267.298 1329.14 254.701C1329.14 242.104 1331.29 231.351 1335.59 222.441C1339.89 213.377 1345.88 206.465 1353.56 201.702C1361.24 196.786 1370.15 194.329 1380.29 194.329C1390.12 194.329 1398.73 196.786 1406.1 201.702C1413.63 206.465 1418.62 212.917 1421.08 221.058H1418.54L1421.08 196.633H1448.73C1448.27 201.395 1447.81 206.234 1447.35 211.15C1447.04 216.066 1446.89 220.905 1446.89 225.667V313H1418.31L1418.08 289.035H1420.85C1418.39 297.024 1413.4 303.399 1405.87 308.161C1398.34 312.923 1389.82 315.304 1380.29 315.304ZM1388.36 293.183C1397.42 293.183 1404.72 290.034 1410.25 283.735C1415.78 277.283 1418.54 267.605 1418.54 254.701C1418.54 241.797 1415.78 232.196 1410.25 225.897C1404.72 219.599 1397.42 216.45 1388.36 216.45C1379.29 216.45 1372 219.599 1366.47 225.897C1360.94 232.196 1358.17 241.797 1358.17 254.701C1358.17 267.605 1360.86 277.283 1366.24 283.735C1371.77 290.034 1379.14 293.183 1388.36 293.183ZM1478.25 313V143.404H1507.06V313H1478.25ZM1588.11 315.304C1574.28 315.304 1563.84 311.694 1556.77 304.474C1549.7 297.254 1546.17 286.424 1546.17 271.983V218.293H1523.82V196.633H1546.17V166.907L1574.97 159.534V196.633H1606.08V218.293H1574.97V270.14C1574.97 278.128 1576.51 283.735 1579.58 286.961C1582.65 290.187 1586.88 291.8 1592.26 291.8C1595.17 291.8 1597.63 291.57 1599.63 291.109C1601.78 290.648 1603.85 290.034 1605.85 289.266V312.078C1603.24 313.154 1600.32 313.922 1597.09 314.383C1594.02 314.997 1591.03 315.304 1588.11 315.304ZM1625.65 313V143.404H1654.45V219.906H1651.22C1654.76 211.611 1660.21 205.312 1667.58 201.011C1674.96 196.556 1683.41 194.329 1692.93 194.329C1706.76 194.329 1717.05 198.246 1723.81 206.08C1730.57 213.761 1733.95 225.513 1733.95 241.336V313H1705.15V242.719C1705.15 233.655 1703.38 227.126 1699.85 223.132C1696.47 218.985 1691.01 216.911 1683.48 216.911C1674.73 216.911 1667.66 219.676 1662.29 225.206C1657.06 230.583 1654.45 237.803 1654.45 246.867V313H1625.65Z" fill="#006262"/>
<path fill-rule="evenodd" clip-rule="evenodd" d="M18.188 223.062C51.5913 272.182 78.2846 233.979 78.2846 233.979L161.212 64.6738L116.626 64.8372C96.6077 64.889 74.8952 65.6717 60.3054 79.8916C47.1781 92.6749 34.0594 105.467 20.932 118.25C9.30141 129.579 -1.0129 141.511 0.0796249 154.277C1.76583 173.968 8.21773 197.737 18.188 223.062Z" fill="url(#paint0_linear_2817_2781)"/>
<path fill-rule="evenodd" clip-rule="evenodd" d="M78.2846 233.979C78.2846 233.979 51.5913 272.182 18.188 223.063C36.8124 270.35 67.7123 323.101 102.785 365.012C172.972 388.436 198.625 336.899 198.625 336.899L198.883 259.374L199.037 212.809L125.108 225.764L78.2849 233.979L78.2846 233.979Z" fill="url(#paint1_linear_2817_2781)"/>
<path fill-rule="evenodd" clip-rule="evenodd" d="M259.298 213.04L219.572 294.136L198.625 336.899C198.625 336.899 172.972 388.436 102.785 365.011C132.523 400.548 165.256 428.291 196.053 438.313C282.619 410.131 384.515 241.919 392.025 154.277C393.118 141.511 382.795 129.579 371.164 118.25C369.254 116.383 367.344 114.525 365.426 112.659C364.411 111.669 363.396 110.68 362.381 109.691C342.346 92.1674 313.235 102.929 313.235 102.929L280.735 169.271L259.298 213.04Z" fill="url(#paint2_linear_2817_2781)"/>
<path fill-rule="evenodd" clip-rule="evenodd" d="M192.482 124.1L274.171 109.777L293.312 106.422L313.235 102.929C313.235 102.929 342.345 92.1678 362.381 109.691C352.187 99.7638 341.993 89.828 331.799 79.8922C317.209 65.6723 295.488 64.8896 275.47 64.8379L212.319 64.6141L192.895 0.000976562L192.671 67.5561L192.482 124.1Z" fill="url(#paint3_linear_2817_2781)"/>
<path fill-rule="evenodd" clip-rule="evenodd" d="M365.426 112.658C342.38 211.69 215.649 382.13 215.649 382.13C168.628 431.784 102.785 365.011 102.785 365.011C132.523 400.548 165.256 428.291 196.052 438.313C282.619 410.131 384.515 241.919 392.025 154.277C393.118 141.511 382.795 129.579 371.164 118.25C369.254 116.383 367.344 114.525 365.426 112.658Z" fill="#6FCF97"/>
<path fill-rule="evenodd" clip-rule="evenodd" d="M39.2124 159.378C53.6388 107.841 113.615 76.3044 161.212 64.6738L116.626 64.8372C96.6081 64.889 74.8956 65.6717 60.3058 79.8916C47.1784 92.6749 34.0597 105.467 20.9324 118.25C9.30179 129.579 -1.01253 141.511 0.079991 154.277C1.766 173.968 8.21789 197.737 18.1882 223.062C31.0661 241.996 42.9461 247.949 52.684 248.13C40.0212 215.655 32.6316 182.871 39.2126 159.378L39.2124 159.378Z" fill="#6FCF97"/>
<path fill-rule="evenodd" clip-rule="evenodd" d="M192.672 67.5555L192.577 95.178L299.377 83.5818C322.397 78.9794 342.079 91.3584 353.056 100.606C345.967 93.6983 338.888 86.7991 331.799 79.8912C317.21 65.6714 295.488 64.8886 275.47 64.8369L212.32 64.6131L192.896 0L192.672 67.5555Z" fill="#6FCF97"/>
<path fill-rule="evenodd" clip-rule="evenodd" d="M59.0754 303.933C59.0754 303.933 117.073 334.248 198.908 251.76L199.037 212.808L125.108 225.763L78.2849 233.978C78.2849 233.978 68.2027 248.405 52.684 248.129C42.9462 247.949 31.0661 241.996 18.1882 223.062C28.511 249.265 42.6019 277.146 59.0754 303.933Z" fill="#6FCF97"/>
<path fill-rule="evenodd" clip-rule="evenodd" d="M130.192 128.005C130.192 128.005 91.5753 193.332 37.7672 193.986C27.685 194.115 17.0611 191.964 6.05847 186.682C9.12953 198.209 13.2244 210.442 18.1879 223.062C31.0659 241.996 42.9459 247.949 52.6838 248.13C68.2027 248.405 78.2846 233.979 78.2846 233.979L130.192 128.005Z" fill="#006262"/>
<path fill-rule="evenodd" clip-rule="evenodd" d="M84.6764 341.922C90.5518 349.897 96.608 357.622 102.785 365.011C172.972 388.436 198.625 336.898 198.625 336.898L198.883 259.373L198.908 251.76C192.526 271.064 176.619 364.16 84.6764 341.922Z" fill="#006262"/>
<path fill-rule="evenodd" clip-rule="evenodd" d="M290.275 149.813C306.327 117.046 347.722 116.392 364.23 117.527C368.549 117.829 371.164 118.25 371.164 118.25C369.254 116.383 367.345 114.525 365.426 112.659C364.411 111.669 363.396 110.68 362.381 109.691C342.346 92.1674 313.235 102.929 313.235 102.929L290.275 149.813Z" fill="#006262"/>
<defs>
<linearGradient id="paint0_linear_2817_2781" x1="80.6061" y1="64.6738" x2="80.6061" y2="248.133" gradientUnits="userSpaceOnUse">
<stop stop-color="#6FCF97"/>
<stop offset="1" stop-color="#008080"/>
</linearGradient>
<linearGradient id="paint1_linear_2817_2781" x1="108.613" y1="212.809" x2="108.613" y2="371.117" gradientUnits="userSpaceOnUse">
<stop stop-color="#6FCF97"/>
<stop offset="1" stop-color="#008080"/>
</linearGradient>
<linearGradient id="paint2_linear_2817_2781" x1="247.445" y1="99.6592" x2="247.445" y2="438.313" gradientUnits="userSpaceOnUse">
<stop stop-color="#008080"/>
<stop offset="1" stop-color="#6FCF97"/>
</linearGradient>
<linearGradient id="paint3_linear_2817_2781" x1="277.431" y1="0.000976562" x2="277.431" y2="124.1" gradientUnits="userSpaceOnUse">
<stop stop-color="#6FCF97"/>
<stop offset="1" stop-color="#008080"/>
</linearGradient>
</defs>
</svg>
