<svg width="20" height="20" viewBox="0 0 20 20" fill="none" xmlns="http://www.w3.org/2000/svg">
<g clip-path="url(#clip0_2365_4551)">
<path d="M0 14.9766C0 15.565 0.233761 16.1294 0.649857 16.5455C1.06595 16.9616 1.6303 17.1953 2.21875 17.1953H17.75C18.3384 17.1953 18.9028 16.9616 19.3189 16.5455C19.735 16.1294 19.9688 15.565 19.9688 14.9766V12.2031H0V14.9766Z" fill="#138808"/>
<path d="M19.9688 7.76562V4.99219C19.9688 4.40374 19.735 3.83939 19.3189 3.42329C18.9028 3.0072 18.3384 2.77344 17.75 2.77344H2.21875C1.6303 2.77344 1.06595 3.0072 0.649857 3.42329C0.233761 3.83939 0 4.40374 0 4.99219L0 7.76562H19.9688Z" fill="#FF9933"/>
<path d="M0 7.58093H19.9688V12.3884H0V7.58093Z" fill="#F7F7F7"/>
<path d="M9.98438 12.2031C11.2098 12.2031 12.2031 11.2098 12.2031 9.98438C12.2031 8.75899 11.2098 7.76562 9.98438 7.76562C8.75899 7.76562 7.76562 8.75899 7.76562 9.98438C7.76562 11.2098 8.75899 12.2031 9.98438 12.2031Z" fill="#000080"/>
<path d="M9.98438 11.8564C11.0183 11.8564 11.8564 11.0183 11.8564 9.98438C11.8564 8.95046 11.0183 8.1123 9.98438 8.1123C8.95046 8.1123 8.1123 8.95046 8.1123 9.98438C8.1123 11.0183 8.95046 11.8564 9.98438 11.8564Z" fill="#F7F7F7"/>
<path d="M10.0399 9.29099L9.98447 9.65154L9.929 9.29099L9.98447 8.20935L10.0399 9.29099ZM9.52519 8.26981L9.7515 9.32871L9.8985 9.66263L9.85856 9.30042L9.52519 8.26981ZM9.09697 8.44731L9.58954 9.41136L9.81807 9.69591L9.68605 9.35589L9.09697 8.44731ZM8.72922 8.72909L9.45475 9.53339L9.74929 9.74916L9.53351 9.45462L8.72922 8.72909ZM8.44743 9.09685L9.35601 9.68593L9.69603 9.81794L9.41148 9.58941L8.44743 9.09685ZM8.26993 9.52507L9.30054 9.85844L9.66275 9.89837L9.32883 9.75138L8.26993 9.52507ZM8.20947 9.98435L9.29111 10.0398L9.65166 9.98435L9.29111 9.92888L8.20947 9.98435ZM8.26993 10.4436L9.32883 10.2173L9.66275 10.0703L9.30054 10.1103L8.26993 10.4436ZM8.44743 10.8719L9.41148 10.3793L9.69603 10.1508L9.35601 10.2828L8.44743 10.8719ZM8.72922 11.2396L9.53351 10.5141L9.74929 10.2195L9.45475 10.4353L8.72922 11.2396ZM9.09697 11.5214L9.68605 10.6128L9.81807 10.2728L9.58954 10.5573L9.09697 11.5214ZM9.52519 11.6989L9.85856 10.6683L9.8985 10.3061L9.7515 10.64L9.52519 11.6989ZM9.98447 11.7594L10.0399 10.6777L9.98447 10.3172L9.929 10.6777L9.98447 11.7594ZM10.4438 11.6989L10.2174 10.64L10.0704 10.3061L10.1104 10.6683L10.4438 11.6989ZM10.872 11.5214L10.3794 10.5573L10.1509 10.2728L10.2829 10.6128L10.872 11.5214ZM11.2397 11.2396L10.5142 10.4353L10.2197 10.2195L10.4354 10.5141L11.2397 11.2396ZM11.5215 10.8719L10.6129 10.2828L10.2729 10.1508L10.5575 10.3793L11.5215 10.8719ZM11.699 10.4436L10.6684 10.1103L10.3062 10.0703L10.6401 10.2173L11.699 10.4436ZM11.7595 9.98435L10.6778 9.92888L10.3173 9.98435L10.6778 10.0398L11.7595 9.98435ZM11.699 9.52507L10.6401 9.75138L10.3062 9.89837L10.6684 9.85844L11.699 9.52507ZM11.5215 9.09685L10.5575 9.58941L10.2729 9.81794L10.6129 9.68593L11.5215 9.09685ZM11.2397 8.72909L10.4354 9.45462L10.2197 9.74916L10.5142 9.53339L11.2397 8.72909ZM10.872 8.44731L10.2829 9.35589L10.1509 9.69591L10.3794 9.41136L10.872 8.44731ZM10.4438 8.26981L10.1104 9.30042L10.0704 9.66263L10.2174 9.32871L10.4438 8.26981Z" fill="#6666B3"/>
<path d="M9.73984 8.24208C9.80111 8.24208 9.85078 8.19241 9.85078 8.13114C9.85078 8.06987 9.80111 8.0202 9.73984 8.0202C9.67857 8.0202 9.62891 8.06987 9.62891 8.13114C9.62891 8.19241 9.67857 8.24208 9.73984 8.24208Z" fill="#000080"/>
<path d="M9.26865 8.36854C9.32992 8.36854 9.37959 8.31887 9.37959 8.2576C9.37959 8.19634 9.32992 8.14667 9.26865 8.14667C9.20738 8.14667 9.15771 8.19634 9.15771 8.2576C9.15771 8.31887 9.20738 8.36854 9.26865 8.36854Z" fill="#000080"/>
<path d="M8.8458 8.61207C8.90707 8.61207 8.95674 8.5624 8.95674 8.50114C8.95674 8.43987 8.90707 8.3902 8.8458 8.3902C8.78453 8.3902 8.73486 8.43987 8.73486 8.50114C8.73486 8.5624 8.78453 8.61207 8.8458 8.61207Z" fill="#000080"/>
<path d="M8.50107 8.95704C8.56234 8.95704 8.61201 8.90737 8.61201 8.84611C8.61201 8.78484 8.56234 8.73517 8.50107 8.73517C8.43981 8.73517 8.39014 8.78484 8.39014 8.84611C8.39014 8.90737 8.43981 8.95704 8.50107 8.95704Z" fill="#000080"/>
<path d="M8.25742 9.37971C8.31869 9.37971 8.36836 9.33004 8.36836 9.26877C8.36836 9.2075 8.31869 9.15784 8.25742 9.15784C8.19615 9.15784 8.14648 9.2075 8.14648 9.26877C8.14648 9.33004 8.19615 9.37971 8.25742 9.37971Z" fill="#000080"/>
<path d="M8.13096 9.85121C8.19223 9.85121 8.24189 9.80154 8.24189 9.74027C8.24189 9.679 8.19223 9.62933 8.13096 9.62933C8.06969 9.62933 8.02002 9.679 8.02002 9.74027C8.02002 9.80154 8.06969 9.85121 8.13096 9.85121Z" fill="#000080"/>
<path d="M8.13096 10.3394C8.19223 10.3394 8.24189 10.2897 8.24189 10.2284C8.24189 10.1672 8.19223 10.1175 8.13096 10.1175C8.06969 10.1175 8.02002 10.1672 8.02002 10.2284C8.02002 10.2897 8.06969 10.3394 8.13096 10.3394Z" fill="#000080"/>
<path d="M8.25742 10.8109C8.31869 10.8109 8.36836 10.7612 8.36836 10.6999C8.36836 10.6387 8.31869 10.589 8.25742 10.589C8.19615 10.589 8.14648 10.6387 8.14648 10.6999C8.14648 10.7612 8.19615 10.8109 8.25742 10.8109Z" fill="#000080"/>
<path d="M8.50107 11.2335C8.56234 11.2335 8.61201 11.1839 8.61201 11.1226C8.61201 11.0613 8.56234 11.0117 8.50107 11.0117C8.43981 11.0117 8.39014 11.0613 8.39014 11.1226C8.39014 11.1839 8.43981 11.2335 8.50107 11.2335Z" fill="#000080"/>
<path d="M8.8458 11.5785C8.90707 11.5785 8.95674 11.5288 8.95674 11.4676C8.95674 11.4063 8.90707 11.3566 8.8458 11.3566C8.78453 11.3566 8.73486 11.4063 8.73486 11.4676C8.73486 11.5288 8.78453 11.5785 8.8458 11.5785Z" fill="#000080"/>
<path d="M9.26865 11.822C9.32992 11.822 9.37959 11.7724 9.37959 11.7111C9.37959 11.6498 9.32992 11.6002 9.26865 11.6002C9.20738 11.6002 9.15771 11.6498 9.15771 11.7111C9.15771 11.7724 9.20738 11.822 9.26865 11.822Z" fill="#000080"/>
<path d="M9.73984 11.9485C9.80111 11.9485 9.85078 11.8988 9.85078 11.8376C9.85078 11.7763 9.80111 11.7266 9.73984 11.7266C9.67857 11.7266 9.62891 11.7763 9.62891 11.8376C9.62891 11.8988 9.67857 11.9485 9.73984 11.9485Z" fill="#000080"/>
<path d="M10.2281 11.9485C10.2894 11.9485 10.3391 11.8988 10.3391 11.8376C10.3391 11.7763 10.2894 11.7266 10.2281 11.7266C10.1669 11.7266 10.1172 11.7763 10.1172 11.8376C10.1172 11.8988 10.1669 11.9485 10.2281 11.9485Z" fill="#000080"/>
<path d="M10.6998 11.822C10.7611 11.822 10.8107 11.7724 10.8107 11.7111C10.8107 11.6498 10.7611 11.6002 10.6998 11.6002C10.6385 11.6002 10.5889 11.6498 10.5889 11.7111C10.5889 11.7724 10.6385 11.822 10.6998 11.822Z" fill="#000080"/>
<path d="M11.1222 11.5785C11.1834 11.5785 11.2331 11.5288 11.2331 11.4676C11.2331 11.4063 11.1834 11.3566 11.1222 11.3566C11.0609 11.3566 11.0112 11.4063 11.0112 11.4676C11.0112 11.5288 11.0609 11.5785 11.1222 11.5785Z" fill="#000080"/>
<path d="M11.4674 11.2335C11.5287 11.2335 11.5783 11.1839 11.5783 11.1226C11.5783 11.0613 11.5287 11.0117 11.4674 11.0117C11.4061 11.0117 11.3564 11.0613 11.3564 11.1226C11.3564 11.1839 11.4061 11.2335 11.4674 11.2335Z" fill="#000080"/>
<path d="M11.711 10.8109C11.7723 10.8109 11.822 10.7612 11.822 10.6999C11.822 10.6387 11.7723 10.589 11.711 10.589C11.6498 10.589 11.6001 10.6387 11.6001 10.6999C11.6001 10.7612 11.6498 10.8109 11.711 10.8109Z" fill="#000080"/>
<path d="M11.8375 10.3394C11.8988 10.3394 11.9484 10.2897 11.9484 10.2284C11.9484 10.1672 11.8988 10.1175 11.8375 10.1175C11.7762 10.1175 11.7266 10.1672 11.7266 10.2284C11.7266 10.2897 11.7762 10.3394 11.8375 10.3394Z" fill="#000080"/>
<path d="M11.8375 9.85121C11.8988 9.85121 11.9484 9.80154 11.9484 9.74027C11.9484 9.679 11.8988 9.62933 11.8375 9.62933C11.7762 9.62933 11.7266 9.679 11.7266 9.74027C11.7266 9.80154 11.7762 9.85121 11.8375 9.85121Z" fill="#000080"/>
<path d="M11.711 9.37971C11.7723 9.37971 11.822 9.33004 11.822 9.26877C11.822 9.2075 11.7723 9.15784 11.711 9.15784C11.6498 9.15784 11.6001 9.2075 11.6001 9.26877C11.6001 9.33004 11.6498 9.37971 11.711 9.37971Z" fill="#000080"/>
<path d="M11.4674 8.95704C11.5287 8.95704 11.5783 8.90737 11.5783 8.84611C11.5783 8.78484 11.5287 8.73517 11.4674 8.73517C11.4061 8.73517 11.3564 8.78484 11.3564 8.84611C11.3564 8.90737 11.4061 8.95704 11.4674 8.95704Z" fill="#000080"/>
<path d="M11.1222 8.61207C11.1834 8.61207 11.2331 8.5624 11.2331 8.50114C11.2331 8.43987 11.1834 8.3902 11.1222 8.3902C11.0609 8.3902 11.0112 8.43987 11.0112 8.50114C11.0112 8.5624 11.0609 8.61207 11.1222 8.61207Z" fill="#000080"/>
<path d="M10.6998 8.36854C10.7611 8.36854 10.8107 8.31887 10.8107 8.2576C10.8107 8.19634 10.7611 8.14667 10.6998 8.14667C10.6385 8.14667 10.5889 8.19634 10.5889 8.2576C10.5889 8.31887 10.6385 8.36854 10.6998 8.36854Z" fill="#000080"/>
<path d="M10.2281 8.24208C10.2894 8.24208 10.3391 8.19241 10.3391 8.13114C10.3391 8.06987 10.2894 8.0202 10.2281 8.0202C10.1669 8.0202 10.1172 8.06987 10.1172 8.13114C10.1172 8.19241 10.1669 8.24208 10.2281 8.24208Z" fill="#000080"/>
<path d="M9.98408 10.4835C10.2598 10.4835 10.4833 10.26 10.4833 9.98433C10.4833 9.70862 10.2598 9.48511 9.98408 9.48511C9.70837 9.48511 9.48486 9.70862 9.48486 9.98433C9.48486 10.26 9.70837 10.4835 9.98408 10.4835Z" fill="#000080"/>
</g>
<defs>
<clipPath id="clip0_2365_4551">
<rect width="19.9688" height="19.9688" fill="white"/>
</clipPath>
</defs>
</svg>
