<svg width="18" height="18" viewBox="0 0 18 18" fill="none" xmlns="http://www.w3.org/2000/svg">
<path d="M6.75 5.6603C6.75 4.16969 8.01382 2.69667 8.90085 1.84636C9.38265 1.38455 10.1174 1.38455 10.5992 1.84636C11.4862 2.69667 12.75 4.16969 12.75 5.6603C12.75 7.12178 11.614 8.625 9.75 8.625C7.88602 8.625 6.75 7.12178 6.75 5.6603Z" stroke="#47A76F" stroke-width="1.125"/>
<path d="M3 10.5H4.79612C5.01673 10.5 5.23431 10.5497 5.43163 10.6452L6.96311 11.3862C7.16043 11.4817 7.37801 11.5313 7.59863 11.5313H8.38057C9.13687 11.5313 9.75 12.1247 9.75 12.8565C9.75 12.8861 9.72975 12.9121 9.70035 12.9202L7.79468 13.4471C7.4528 13.5416 7.08675 13.5087 6.76875 13.3548L5.13158 12.5627" stroke="#47A76F" stroke-width="1.125" stroke-linecap="round" stroke-linejoin="round"/>
<path d="M9.75 12.375L13.1946 11.3167C13.8053 11.1264 14.4653 11.352 14.8478 11.8817C15.1244 12.2647 15.0118 12.8132 14.6089 13.0457L8.97218 16.2979C8.61368 16.5047 8.19067 16.5552 7.7964 16.4382L3 15.0149" stroke="#47A76F" stroke-width="1.125" stroke-linecap="round" stroke-linejoin="round"/>
</svg>
