<svg width="23" height="23" viewBox="0 0 23 23" fill="none" xmlns="http://www.w3.org/2000/svg">
<path d="M7.49108 14.0015C3.00088 11.6015 3.00088 10.4015 3.00088 10.0015C3.00088 9.60146 3.00088 8.40146 7.49108 6.00146M7.49108 14.0015C3.00088 16.4015 3 17.2015 3 18.0015M7.49108 14.0015C11.9803 11.602 11.9803 10.402 11.9803 10.0017C11.9803 9.60148 11.9803 8.40099 7.49108 6.00146M7.49108 6.00146C11.9812 3.60146 11.9812 2.80146 11.9812 2.00146M7.49108 6.00146L5.30781 4.74576C3.00057 3.28295 3 2.64221 3 2.00146" stroke="white" stroke-width="1.5" stroke-linecap="round" stroke-linejoin="round"/>
<path d="M14 12.9996L14.2948 13.7962C14.6813 14.8408 14.8746 15.3631 15.2556 15.7441C15.6366 16.1251 16.1588 16.3183 17.2034 16.7049L18 16.9996L17.2034 17.2944C16.1588 17.6809 15.6366 17.8742 15.2556 18.2552C14.8746 18.6362 14.6813 19.1585 14.2948 20.203L14 20.9996L13.7052 20.203C13.3187 19.1585 13.1254 18.6362 12.7444 18.2552C12.3634 17.8742 11.8412 17.6809 10.7966 17.2944L10 16.9996L10.7966 16.7049C11.8412 16.3183 12.3634 16.1251 12.7444 15.7441C13.1254 15.3631 13.3187 14.8408 13.7052 13.7962L14 12.9996Z" stroke="white" stroke-width="1.5" stroke-linejoin="round"/>
</svg>
