<svg width="9" height="9" viewBox="0 0 9 9" fill="none" xmlns="http://www.w3.org/2000/svg">
<path d="M3.71177 2.59851L3.52028 3.116C3.26918 3.79456 3.14364 4.13384 2.89613 4.38137C2.64863 4.62886 2.30934 4.7544 1.63077 5.00552L1.11328 5.197L1.63077 5.38847C2.30934 5.63959 2.64863 5.76514 2.89613 6.01262C3.14364 6.26015 3.26918 6.59944 3.52028 7.27797L3.71177 7.79548L3.90324 7.27797C4.15436 6.59944 4.27991 6.26015 4.52739 6.01262C4.77492 5.76514 5.11421 5.63959 5.79274 5.38847L6.31025 5.197L5.79274 5.00552C5.11421 4.7544 4.77492 4.62886 4.52739 4.38137C4.27991 4.13384 4.15436 3.79456 3.90324 3.116L3.71177 2.59851Z" stroke="white" stroke-width="0.556818" stroke-linejoin="round"/>
<path d="M6.682 1.11365L6.59992 1.33543C6.49231 1.62624 6.43852 1.77165 6.33243 1.87772C6.22637 1.9838 6.08097 2.03761 5.79016 2.14522L5.56836 2.22728L5.79016 2.30935C6.08097 2.41696 6.22637 2.47077 6.33243 2.57684C6.43852 2.68291 6.49231 2.82832 6.59992 3.11914L6.682 3.34092L6.76407 3.11914C6.87169 2.82832 6.92547 2.68291 7.03157 2.57684C7.13762 2.47077 7.28303 2.41696 7.57383 2.30935L7.79563 2.22728L7.57383 2.14522C7.28303 2.03761 7.13762 1.9838 7.03157 1.87772C6.92547 1.77165 6.87169 1.62624 6.76407 1.33543L6.682 1.11365Z" stroke="white" stroke-width="0.556818" stroke-linejoin="round"/>
</svg>
