<svg width="18" height="18" viewBox="0 0 18 18" fill="none" xmlns="http://www.w3.org/2000/svg">
<path d="M14.0316 2.62151C12.6124 1.91537 10.8757 1.5 9 1.5C7.12432 1.5 5.38763 1.91537 3.96837 2.62151C3.27239 2.9678 2.92439 3.14094 2.5872 3.68534C2.25 4.22974 2.25 4.75686 2.25 5.8111V8.42782C2.25 12.6904 5.65677 15.0603 7.62975 16.0753C8.18003 16.3585 8.45513 16.5 9 16.5C9.54487 16.5 9.81997 16.3585 10.3702 16.0753C12.3432 15.0603 15.75 12.6904 15.75 8.42782V5.8111C15.75 4.75687 15.75 4.22975 15.4128 3.68534C15.0756 3.14093 14.7276 2.9678 14.0316 2.62151Z" stroke="#47A76F" stroke-width="1.125" stroke-linecap="round" stroke-linejoin="round"/>
<path d="M14.0316 2.62151C12.6124 1.91537 10.8757 1.5 9 1.5C7.12432 1.5 5.38763 1.91537 3.96837 2.62151C3.27239 2.9678 2.92439 3.14094 2.5872 3.68534C2.25 4.22974 2.25 4.75686 2.25 5.8111V8.42782C2.25 12.6904 5.65677 15.0603 7.62975 16.0753C8.18003 16.3585 8.45513 16.5 9 16.5C9.54487 16.5 9.81997 16.3585 10.3702 16.0753C12.3432 15.0603 15.75 12.6904 15.75 8.42782V5.8111C15.75 4.75687 15.75 4.22975 15.4128 3.68534C15.0756 3.14093 14.7276 2.9678 14.0316 2.62151Z" stroke="url(#paint0_linear_2365_4586)" stroke-width="1.125" stroke-linecap="round" stroke-linejoin="round"/>
<path d="M6.375 10.8738C6.375 9.42405 7.55025 8.2488 9 8.2488C10.4497 8.2488 11.625 9.42405 11.625 10.8738M10.5 6.75C10.5 7.57845 9.82845 8.25 9 8.25C8.17155 8.25 7.5 7.57845 7.5 6.75C7.5 5.92157 8.17155 5.25 9 5.25C9.82845 5.25 10.5 5.92157 10.5 6.75Z" stroke="#47A76F" stroke-width="1.125" stroke-linecap="round" stroke-linejoin="round"/>
<path d="M6.375 10.8738C6.375 9.42405 7.55025 8.2488 9 8.2488C10.4497 8.2488 11.625 9.42405 11.625 10.8738M10.5 6.75C10.5 7.57845 9.82845 8.25 9 8.25C8.17155 8.25 7.5 7.57845 7.5 6.75C7.5 5.92157 8.17155 5.25 9 5.25C9.82845 5.25 10.5 5.92157 10.5 6.75Z" stroke="url(#paint1_linear_2365_4586)" stroke-width="1.125" stroke-linecap="round" stroke-linejoin="round"/>
<defs>
<linearGradient id="paint0_linear_2365_4586" x1="7.5896" y1="-1.22727" x2="-2.46867" y2="8.24182" gradientUnits="userSpaceOnUse">
<stop stop-color="#6FCF97"/>
<stop offset="1" stop-color="#3D9D65"/>
</linearGradient>
<linearGradient id="paint1_linear_2365_4586" x1="8.45151" y1="4.22749" x2="4.67466" y2="7.91558" gradientUnits="userSpaceOnUse">
<stop stop-color="#6FCF97"/>
<stop offset="1" stop-color="#3D9D65"/>
</linearGradient>
</defs>
</svg>
