<svg width="18" height="18" viewBox="0 0 18 18" fill="none" xmlns="http://www.w3.org/2000/svg">
<path d="M5.25 1.5C3.17893 1.5 1.5 3.17893 1.5 5.25C1.5 6.63803 2.25412 7.84995 3.375 8.49832V13.3823C3.375 13.9954 3.375 14.302 3.48918 14.5777C3.60336 14.8534 3.82013 15.0701 4.25368 15.5037L5.25 16.5L6.83114 14.9188C6.90406 14.8459 6.94055 14.8094 6.9708 14.7699C7.05023 14.666 7.10112 14.5432 7.11841 14.4135C7.125 14.3641 7.125 14.3125 7.125 14.2094C7.125 14.1259 7.125 14.0842 7.12057 14.0437C7.10898 13.9373 7.07477 13.8347 7.02026 13.7427C6.99947 13.7076 6.97443 13.6742 6.92434 13.6075L6 12.375L6.525 11.675C6.82237 11.2785 6.97105 11.0803 7.04803 10.8493C7.125 10.6184 7.125 10.3706 7.125 9.87502V8.49832C8.24587 7.84995 9 6.63803 9 5.25C9 3.17893 7.32106 1.5 5.25 1.5Z" stroke="#878787" stroke-linejoin="round"/>
<path d="M5.25 5.25H5.25898" stroke="#878787" stroke-linecap="round" stroke-linejoin="round"/>
<path d="M9.75 10.5H14.25C14.9489 10.5 15.2983 10.5 15.574 10.6141C15.9415 10.7664 16.2336 11.0585 16.3858 11.426C16.5 11.7017 16.5 12.0511 16.5 12.75C16.5 13.4489 16.5 13.7983 16.3858 14.074C16.2336 14.4415 15.9415 14.7336 15.574 14.8858C15.2983 15 14.9489 15 14.25 15H9.75" stroke="#878787" stroke-linecap="round"/>
<path d="M11.25 3.75H14.25C14.9489 3.75 15.2984 3.75 15.5741 3.86418C15.9416 4.01642 16.2336 4.30844 16.3859 4.67597C16.5 4.95164 16.5 5.30109 16.5 6C16.5 6.69891 16.5 7.04837 16.3859 7.32403C16.2336 7.69155 15.9416 7.9836 15.5741 8.13585C15.2984 8.25 14.9489 8.25 14.25 8.25H11.25" stroke="#878787" stroke-linecap="round"/>
</svg>
