<svg width="15" height="15" viewBox="0 0 15 15" fill="none" xmlns="http://www.w3.org/2000/svg">
<circle cx="7.259" cy="7.259" r="6.83369" transform="rotate(-3.68714 7.259 7.259)" fill="white" fill-opacity="0.4"/>
<path d="M5.7373 4.0884L5.80004 5.06099" stroke="#292D32" stroke-width="0.487304" stroke-miterlimit="10" stroke-linecap="round" stroke-linejoin="round"/>
<path d="M8.33105 3.92116L8.39379 4.89375" stroke="#292D32" stroke-width="0.487304" stroke-miterlimit="10" stroke-linecap="round" stroke-linejoin="round"/>
<path d="M4.42676 6.48122L9.93809 6.12575" stroke="#292D32" stroke-width="0.487304" stroke-miterlimit="10" stroke-linecap="round" stroke-linejoin="round"/>
<path d="M10.0875 5.92406L10.2653 8.67973C10.328 9.65231 9.88353 10.3321 8.74885 10.4053L6.15528 10.5725C5.02059 10.6457 4.49248 10.0287 4.42975 9.05611L4.25201 6.30044C4.18928 5.32786 4.63375 4.6481 5.76844 4.57491L8.36201 4.40763C9.49669 4.33445 10.0248 4.95147 10.0875 5.92406Z" stroke="#292D32" stroke-width="0.487304" stroke-miterlimit="10" stroke-linecap="round" stroke-linejoin="round"/>
<path d="M7.27771 7.79777L7.28062 7.79759" stroke="#292D32" stroke-width="0.649739" stroke-linecap="round" stroke-linejoin="round"/>
<path d="M6.07751 7.87541L6.08042 7.87522" stroke="#292D32" stroke-width="0.649739" stroke-linecap="round" stroke-linejoin="round"/>
<path d="M6.14001 8.84807L6.14292 8.84788" stroke="#292D32" stroke-width="0.649739" stroke-linecap="round" stroke-linejoin="round"/>
</svg>
