<svg version="1.2" xmlns="http://www.w3.org/2000/svg" viewBox="0 0 24 24" width="24" height="24">
	<style>
		.s0 { fill: #ffffff;stroke: #000000;stroke-linejoin: round;stroke-width: 1.5 } 
	</style>
	<path class="s0" d="m10 7l-0.52 1.39c-0.67 1.83-1.01 2.75-1.68 3.41-0.66 0.67-1.58 1.01-3.41 1.68l-1.39 0.52 1.39 0.52c1.83 0.67 2.75 1.01 3.41 1.68 0.67 0.66 1.01 1.58 1.68 3.41l0.52 1.39 0.52-1.39c0.67-1.83 1.01-2.75 1.68-3.41 0.66-0.67 1.58-1.01 3.41-1.68l1.39-0.52-1.39-0.52c-1.83-0.67-2.75-1.01-3.41-1.68-0.67-0.66-1.01-1.58-1.68-3.41z"/>
	<path class="s0" d="m18 3l-0.22 0.6c-0.29 0.78-0.44 1.17-0.72 1.46-0.29 0.28-0.68 0.43-1.46 0.72l-0.6 0.22 0.6 0.22c0.78 0.29 1.17 0.44 1.46 0.72 0.28 0.29 0.43 0.68 0.72 1.46l0.22 0.6 0.22-0.6c0.29-0.78 0.44-1.17 0.72-1.46 0.29-0.28 0.68-0.43 1.46-0.72l0.6-0.22-0.6-0.22c-0.78-0.29-1.17-0.44-1.46-0.72-0.28-0.29-0.43-0.68-0.72-1.46z"/>
</svg>