<svg width="24" height="25" viewBox="0 0 24 25" fill="none" xmlns="http://www.w3.org/2000/svg">
<g clip-path="url(#clip0_2175_5900)">
<path d="M20.9766 20.1211C21.7422 20.4961 22.375 21.0234 22.875 21.7031C23.375 22.3828 23.6914 23.1484 23.8242 24H22.5352C22.4492 23.5547 22.2891 23.1406 22.0547 22.7578C21.8203 22.375 21.5352 22.0469 21.1992 21.7734C20.8633 21.5 20.4844 21.2812 20.0625 21.1172C19.6406 20.9531 19.2031 20.875 18.75 20.8828C18.2891 20.8828 17.8516 20.9609 17.4375 21.1172C17.0234 21.2734 16.6445 21.4883 16.3008 21.7617C15.957 22.0352 15.6719 22.3672 15.4453 22.7578C15.2188 23.1484 15.0586 23.5625 14.9648 24H13.6758C13.8008 23.1562 14.1133 22.3945 14.6133 21.7148C15.1133 21.0352 15.75 20.5039 16.5234 20.1211C16.0781 19.7695 15.7344 19.3438 15.4922 18.8438C15.25 18.3438 15.125 17.8125 15.1172 17.25C15.1172 16.8984 15.1641 16.5586 15.2578 16.2305C15.3516 15.9023 15.4922 15.5938 15.6797 15.3047C15.8672 15.0156 16.0898 14.7578 16.3477 14.5312C16.6055 14.3047 16.8945 14.1133 17.2148 13.957C17.0039 13.6523 16.7617 13.3828 16.4883 13.1484C16.2148 12.9141 15.918 12.707 15.5977 12.5273C15.2773 12.3477 14.9414 12.2188 14.5898 12.1406C14.2383 12.0625 13.875 12.0156 13.5 12C12.875 12 12.2773 12.1211 11.707 12.3633C11.1367 12.6055 10.6406 12.9609 10.2188 13.4297C10.4062 13.9375 10.5 14.4609 10.5 15C10.5 15.7188 10.3398 16.3945 10.0195 17.0273C9.69922 17.6602 9.25 18.1914 8.67188 18.6211C9.17969 18.8789 9.63672 19.1953 10.043 19.5703C10.4492 19.9453 10.8008 20.3672 11.0977 20.8359C11.3945 21.3047 11.6172 21.8047 11.7656 22.3359C11.9141 22.8672 11.9922 23.4219 12 24H10.5C10.5 23.3828 10.3828 22.8008 10.1484 22.2539C9.91406 21.707 9.59375 21.2305 9.1875 20.8242C8.78125 20.418 8.30078 20.0938 7.74609 19.8516C7.19141 19.6094 6.60938 19.4922 6 19.5C5.375 19.5 4.79297 19.6172 4.25391 19.8516C3.71484 20.0859 3.23828 20.4062 2.82422 20.8125C2.41016 21.2188 2.08594 21.6992 1.85156 22.2539C1.61719 22.8086 1.5 23.3906 1.5 24H0C0 23.4297 0.078125 22.8789 0.234375 22.3477C0.390625 21.8164 0.613281 21.3164 0.902344 20.8477C1.19141 20.3789 1.53906 19.957 1.94531 19.582C2.35156 19.207 2.8125 18.8867 3.32812 18.6211C2.75 18.1914 2.30078 17.6602 1.98047 17.0273C1.66016 16.3945 1.5 15.7188 1.5 15C1.5 14.3828 1.61719 13.8008 1.85156 13.2539C2.08594 12.707 2.40625 12.2305 2.8125 11.8242C3.21875 11.418 3.69531 11.0938 4.24219 10.8516C4.78906 10.6094 5.375 10.4922 6 10.5C6.66406 10.5 7.29297 10.6406 7.88672 10.9219C8.48047 11.2031 8.99609 11.5938 9.43359 12.0938C9.63672 11.8984 9.85547 11.7227 10.0898 11.5664C10.3242 11.4102 10.5703 11.2617 10.8281 11.1211C10.25 10.6914 9.80078 10.1602 9.48047 9.52734C9.16016 8.89453 9 8.21875 9 7.5C9 6.88281 9.11719 6.30078 9.35156 5.75391C9.58594 5.20703 9.90625 4.73047 10.3125 4.32422C10.7188 3.91797 11.1953 3.59375 11.7422 3.35156C12.2891 3.10938 12.875 2.99219 13.5 3C14.1172 3 14.6992 3.11719 15.2461 3.35156C15.793 3.58594 16.2695 3.90625 16.6758 4.3125C17.082 4.71875 17.4062 5.19922 17.6484 5.75391C17.8906 6.30859 18.0078 6.89062 18 7.5C18 8.21875 17.8398 8.89453 17.5195 9.52734C17.1992 10.1602 16.75 10.6914 16.1719 11.1211C16.7188 11.4102 17.2109 11.7617 17.6484 12.1758C18.0859 12.5898 18.457 13.0703 18.7617 13.6172C19.2617 13.6172 19.7305 13.7109 20.168 13.8984C20.6055 14.0859 20.9922 14.3477 21.3281 14.6836C21.6641 15.0195 21.9219 15.4023 22.1016 15.832C22.2812 16.2617 22.375 16.7344 22.3828 17.25C22.3828 17.8125 22.2617 18.3438 22.0195 18.8438C21.7773 19.3438 21.4297 19.7695 20.9766 20.1211ZM6 18C6.41406 18 6.80078 17.9219 7.16016 17.7656C7.51953 17.6094 7.83984 17.3945 8.12109 17.1211C8.40234 16.8477 8.61719 16.5312 8.76562 16.1719C8.91406 15.8125 8.99219 15.4219 9 15C9 14.5859 8.92188 14.1992 8.76562 13.8398C8.60938 13.4805 8.39453 13.1602 8.12109 12.8789C7.84766 12.5977 7.53125 12.3828 7.17188 12.2344C6.8125 12.0859 6.42188 12.0078 6 12C5.58594 12 5.19922 12.0781 4.83984 12.2344C4.48047 12.3906 4.16016 12.6055 3.87891 12.8789C3.59766 13.1523 3.38281 13.4688 3.23438 13.8281C3.08594 14.1875 3.00781 14.5781 3 15C3 15.4141 3.07812 15.8008 3.23438 16.1602C3.39062 16.5195 3.60547 16.8398 3.87891 17.1211C4.15234 17.4023 4.46875 17.6172 4.82812 17.7656C5.1875 17.9141 5.57812 17.9922 6 18ZM10.5 7.5C10.5 7.91406 10.5781 8.30078 10.7344 8.66016C10.8906 9.01953 11.1055 9.33984 11.3789 9.62109C11.6523 9.90234 11.9688 10.1172 12.3281 10.2656C12.6875 10.4141 13.0781 10.4922 13.5 10.5C13.9141 10.5 14.3008 10.4219 14.6602 10.2656C15.0195 10.1094 15.3398 9.89453 15.6211 9.62109C15.9023 9.34766 16.1172 9.03125 16.2656 8.67188C16.4141 8.3125 16.4922 7.92188 16.5 7.5C16.5 7.08594 16.4219 6.69922 16.2656 6.33984C16.1094 5.98047 15.8945 5.66016 15.6211 5.37891C15.3477 5.09766 15.0312 4.88281 14.6719 4.73438C14.3125 4.58594 13.9219 4.50781 13.5 4.5C13.0859 4.5 12.6992 4.57812 12.3398 4.73438C11.9805 4.89062 11.6602 5.10547 11.3789 5.37891C11.0977 5.65234 10.8828 5.96875 10.7344 6.32812C10.5859 6.6875 10.5078 7.07812 10.5 7.5ZM18.75 14.8828C18.4219 14.8828 18.1172 14.9453 17.8359 15.0703C17.5547 15.1953 17.3047 15.3633 17.0859 15.5742C16.8672 15.7852 16.6953 16.0352 16.5703 16.3242C16.4453 16.6133 16.3828 16.9219 16.3828 17.25C16.3828 17.5781 16.4453 17.8828 16.5703 18.1641C16.6953 18.4453 16.8633 18.6953 17.0742 18.9141C17.2852 19.1328 17.5352 19.3047 17.8242 19.4297C18.1133 19.5547 18.4219 19.6172 18.75 19.6172C19.0781 19.6172 19.3828 19.5547 19.6641 19.4297C19.9453 19.3047 20.1953 19.1367 20.4141 18.9258C20.6328 18.7148 20.8047 18.4648 20.9297 18.1758C21.0547 17.8867 21.1172 17.5781 21.1172 17.25C21.1172 16.9219 21.0547 16.6172 20.9297 16.3359C20.8047 16.0547 20.6367 15.8047 20.4258 15.5859C20.2148 15.3672 19.9648 15.1953 19.6758 15.0703C19.3867 14.9453 19.0781 14.8828 18.75 14.8828Z" fill="black"/>
</g>
<defs>
<clipPath id="clip0_2175_5900">
<rect width="24" height="24" fill="white"/>
</clipPath>
</defs>
</svg>
