<svg width="49" height="49" viewBox="0 0 49 49" fill="none" xmlns="http://www.w3.org/2000/svg">
<path d="M41.8541 28.5833V20.4167C41.8541 12.7171 41.8541 8.86726 39.4623 6.47529C37.0703 4.08333 33.2205 4.08333 25.5208 4.08333H23.4793C15.7799 4.08333 11.9301 4.08333 9.53814 6.47527C7.14616 8.8672 7.14614 12.717 7.14608 20.4165L7.146 28.5831C7.14594 36.2829 7.14589 40.1326 9.53787 42.5246C11.9298 44.9167 15.7797 44.9167 23.4793 44.9167H25.5208C33.2205 44.9167 37.0703 44.9167 39.4623 42.5246C41.8541 40.1328 41.8541 36.2829 41.8541 28.5833Z" stroke="#47A76F" stroke-width="3.0625" stroke-linecap="round" stroke-linejoin="round"/>
<path d="M16.3335 14.2917H32.6668M16.3335 24.5H32.6668M16.3335 34.7083H24.5002" stroke="#47A76F" stroke-width="3.0625" stroke-linecap="round" stroke-linejoin="round"/>
</svg>
