<svg width="49" height="49" viewBox="0 0 49 49" fill="none" xmlns="http://www.w3.org/2000/svg">
<path d="M38.1971 7.13632C34.3337 5.21405 29.606 4.08333 24.5 4.08333C19.394 4.08333 14.6663 5.21405 10.8028 7.13632C8.90816 8.079 7.96085 8.55034 7.04293 10.0323C6.125 11.5143 6.125 12.9492 6.125 15.8191V22.9424C6.125 34.546 15.399 40.9975 20.7699 43.7607C22.2678 44.5314 23.0167 44.9167 24.5 44.9167C25.9833 44.9167 26.7322 44.5314 28.2299 43.7607C33.6009 40.9975 42.875 34.546 42.875 22.9424V15.8191C42.875 12.9492 42.875 11.5143 41.9571 10.0323C41.0391 8.55032 40.0918 8.079 38.1971 7.13632Z" stroke="#47A76F" stroke-width="3.0625" stroke-linecap="round" stroke-linejoin="round"/>
<path d="M38.1971 7.13632C34.3337 5.21405 29.606 4.08333 24.5 4.08333C19.394 4.08333 14.6663 5.21405 10.8028 7.13632C8.90816 8.079 7.96085 8.55034 7.04293 10.0323C6.125 11.5143 6.125 12.9492 6.125 15.8191V22.9424C6.125 34.546 15.399 40.9975 20.7699 43.7607C22.2678 44.5314 23.0167 44.9167 24.5 44.9167C25.9833 44.9167 26.7322 44.5314 28.2299 43.7607C33.6009 40.9975 42.875 34.546 42.875 22.9424V15.8191C42.875 12.9492 42.875 11.5143 41.9571 10.0323C41.0391 8.55032 40.0918 8.079 38.1971 7.13632Z" stroke="url(#paint0_linear_2365_4657)" stroke-width="3.0625" stroke-linecap="round" stroke-linejoin="round"/>
<path d="M17.354 29.6009C17.354 25.6544 20.5533 22.4551 24.4998 22.4551C28.4464 22.4551 31.6457 25.6544 31.6457 29.6009M28.5832 18.375C28.5832 20.6302 26.7551 22.4583 24.4998 22.4583C22.2446 22.4583 20.4165 20.6302 20.4165 18.375C20.4165 16.1198 22.2446 14.2917 24.4998 14.2917C26.7551 14.2917 28.5832 16.1198 28.5832 18.375Z" stroke="#47A76F" stroke-width="3.0625" stroke-linecap="round" stroke-linejoin="round"/>
<path d="M17.354 29.6009C17.354 25.6544 20.5533 22.4551 24.4998 22.4551C28.4464 22.4551 31.6457 25.6544 31.6457 29.6009M28.5832 18.375C28.5832 20.6302 26.7551 22.4583 24.4998 22.4583C22.2446 22.4583 20.4165 20.6302 20.4165 18.375C20.4165 16.1198 22.2446 14.2917 24.4998 14.2917C26.7551 14.2917 28.5832 16.1198 28.5832 18.375Z" stroke="url(#paint1_linear_2365_4657)" stroke-width="3.0625" stroke-linecap="round" stroke-linejoin="round"/>
<defs>
<linearGradient id="paint0_linear_2365_4657" x1="20.6606" y1="-3.34091" x2="-6.72027" y2="22.4361" gradientUnits="userSpaceOnUse">
<stop stop-color="#6FCF97"/>
<stop offset="1" stop-color="#3D9D65"/>
</linearGradient>
<linearGradient id="paint1_linear_2365_4657" x1="23.0067" y1="11.5082" x2="12.7253" y2="21.548" gradientUnits="userSpaceOnUse">
<stop stop-color="#6FCF97"/>
<stop offset="1" stop-color="#3D9D65"/>
</linearGradient>
</defs>
</svg>
