<svg width="49" height="49" viewBox="0 0 49 49" fill="none" xmlns="http://www.w3.org/2000/svg">
<path d="M31.6457 22.4583C31.6457 18.5118 28.4464 15.3125 24.4998 15.3125C20.5533 15.3125 17.354 18.5118 17.354 22.4583C17.354 26.4049 20.5533 29.6042 24.4998 29.6042C28.4464 29.6042 31.6457 26.4049 31.6457 22.4583Z" stroke="#47A76F" stroke-width="3.0625" stroke-linecap="round" stroke-linejoin="round"/>
<path d="M31.6107 23.1727C32.2681 23.372 32.9653 23.4792 33.6877 23.4792C37.6342 23.4792 40.8335 20.2799 40.8335 16.3333C40.8335 12.3868 37.6342 9.1875 33.6877 9.1875C29.9822 9.1875 26.9355 12.0079 26.5771 15.619" stroke="#47A76F" stroke-width="3.0625" stroke-linecap="round" stroke-linejoin="round"/>
<path d="M22.4229 15.619C22.0645 12.0079 19.0178 9.1875 15.3123 9.1875C11.3658 9.1875 8.1665 12.3868 8.1665 16.3333C8.1665 20.2799 11.3658 23.4792 15.3123 23.4792C16.0347 23.4792 16.732 23.372 17.3893 23.1727" stroke="#47A76F" stroke-width="3.0625" stroke-linecap="round" stroke-linejoin="round"/>
<path d="M44.9167 33.6875C44.9167 28.0496 39.8893 23.4792 33.6875 23.4792" stroke="#47A76F" stroke-width="3.0625" stroke-linecap="round" stroke-linejoin="round"/>
<path d="M35.7293 39.8125C35.7293 34.1746 30.7019 29.6042 24.5002 29.6042C18.2985 29.6042 13.271 34.1746 13.271 39.8125" stroke="#47A76F" stroke-width="3.0625" stroke-linecap="round" stroke-linejoin="round"/>
<path d="M15.3127 23.4792C9.11096 23.4792 4.0835 28.0496 4.0835 33.6875" stroke="#47A76F" stroke-width="3.0625" stroke-linecap="round" stroke-linejoin="round"/>
</svg>
