<svg width="8" height="8" viewBox="0 0 8 8" fill="none" xmlns="http://www.w3.org/2000/svg">
<path d="M5.19531 5.1944C4.77343 5.1944 4.43142 4.8524 4.43142 4.43051C4.43142 4.00863 4.77343 3.66663 5.19531 3.66663C5.61719 3.66663 5.9592 4.00863 5.9592 4.43051C5.9592 4.8524 5.61719 5.1944 5.19531 5.1944ZM5.19531 5.1944C5.95471 5.1944 6.57031 5.81001 6.57031 6.5694M5.19531 5.1944C4.43592 5.1944 3.82031 5.81001 3.82031 6.5694" stroke="white" stroke-width="0.458333" stroke-linecap="round" stroke-linejoin="round"/>
<path d="M2.13867 2.29165C1.71679 2.29165 1.37478 1.94964 1.37478 1.52776C1.37478 1.10588 1.71679 0.76387 2.13867 0.76387C2.56056 0.76387 2.90256 1.10588 2.90256 1.52776C2.90256 1.94964 2.56056 2.29165 2.13867 2.29165ZM2.13867 2.29165C2.89806 2.29165 3.51367 2.90726 3.51367 3.66665M2.13867 2.29165C1.37928 2.29165 0.763672 2.90726 0.763672 3.66665" stroke="white" stroke-width="0.458333" stroke-linecap="round" stroke-linejoin="round"/>
<path d="M1.07031 4.73604C1.07031 5.58069 1.75345 6.26382 2.59809 6.26382L2.44531 5.6527" stroke="white" stroke-width="0.458333" stroke-linecap="round" stroke-linejoin="round"/>
<path d="M5.65278 2.59716C5.65278 1.75252 4.96965 1.06938 4.125 1.06938L4.27778 1.68049" stroke="white" stroke-width="0.458333" stroke-linecap="round" stroke-linejoin="round"/>
</svg>
