<svg width="40" height="40" viewBox="0 0 40 40" fill="none" xmlns="http://www.w3.org/2000/svg">
<path d="M20.0004 11.6665C15.3979 11.6665 11.667 15.3975 11.667 19.9998C11.667 24.6022 15.3979 28.3332 20.0004 28.3332C24.6027 28.3332 28.3337 24.6022 28.3337 19.9998C28.3337 15.3975 24.6027 11.6665 20.0004 11.6665Z" stroke="#47A76F" stroke-width="2.5" stroke-linecap="round" stroke-linejoin="round"/>
<path d="M29.5614 10.4388L35.8337 4.1665M29.5614 10.4388C28.8287 9.70612 29.3059 6.7023 29.4947 4.99984M29.5614 10.4388C30.294 11.1715 33.2979 10.6943 35.0004 10.5054" stroke="#47A76F" stroke-width="2.5" stroke-linecap="round" stroke-linejoin="round"/>
<path d="M10.4393 29.5609L4.16699 35.8332M10.4393 29.5609C9.70659 28.8282 6.70279 29.3054 5.00033 29.4942M10.4393 29.5609C11.1719 30.2936 10.6947 33.2974 10.5059 34.9999" stroke="#47A76F" stroke-width="2.5" stroke-linecap="round" stroke-linejoin="round"/>
<path d="M29.5614 29.5609L35.8337 35.8332M29.5614 29.5609C30.294 28.8282 33.2979 29.3054 35.0004 29.4942M29.5614 29.5609C28.8287 30.2936 29.3059 33.2974 29.4947 34.9999" stroke="#47A76F" stroke-width="2.5" stroke-linecap="round" stroke-linejoin="round"/>
<path d="M10.4393 10.4388L4.16699 4.1665M10.4393 10.4388C11.1719 9.70612 10.6947 6.7023 10.5059 4.99984M10.4393 10.4388C9.70659 11.1715 6.70279 10.6943 5.00033 10.5054" stroke="#47A76F" stroke-width="2.5" stroke-linecap="round" stroke-linejoin="round"/>
</svg>
