<svg width="40" height="40" viewBox="0 0 40 40" fill="none" xmlns="http://www.w3.org/2000/svg">
<path d="M13.9925 4.25304C16.4507 2.72995 18.5962 3.34374 19.885 4.32142C20.4135 4.72229 20.6777 4.92274 20.8332 4.92274C20.9887 4.92274 21.2528 4.72229 21.7813 4.32142C23.0702 3.34374 25.2157 2.72995 27.6738 4.25304C30.9 6.2519 31.63 12.8463 24.1887 18.4098C22.7713 19.4694 22.0627 19.9991 20.8332 19.9991C19.6037 19.9991 18.895 19.4694 17.4777 18.4098C10.0364 12.8463 10.7664 6.2519 13.9925 4.25304Z" stroke="#47A76F" stroke-width="2.5" stroke-linecap="round"/>
<path d="M6.6665 23.3335H10.6579C11.1481 23.3335 11.6316 23.444 12.0701 23.6562L15.4734 25.3028C15.9119 25.515 16.3954 25.6253 16.8857 25.6253H18.6233C20.304 25.6253 21.6665 26.9438 21.6665 28.5702C21.6665 28.6358 21.6215 28.6937 21.5562 28.7117L17.3213 29.8827C16.5616 30.0927 15.7482 30.0195 15.0415 29.6775L11.4034 27.9173" stroke="#47A76F" stroke-width="2.5" stroke-linecap="round" stroke-linejoin="round"/>
<path d="M21.6665 27.5L29.3212 25.1482C30.6782 24.7254 32.145 25.2267 32.995 26.4039C33.6097 27.2549 33.3593 28.4737 32.464 28.9904L19.938 36.2175C19.1413 36.6772 18.2013 36.7894 17.3252 36.5294L6.6665 33.3665" stroke="#47A76F" stroke-width="2.5" stroke-linecap="round" stroke-linejoin="round"/>
</svg>
