<svg width="40" height="40" viewBox="0 0 40 40" fill="none" xmlns="http://www.w3.org/2000/svg">
<path d="M20 7.5V10M20 10V12.5M20 10H22.5M20 10H17.5" stroke="#47A76F" stroke-width="2.5" stroke-linecap="round"/>
<path d="M14.3098 4.30981C13.3335 5.28611 13.3335 6.85746 13.3335 10.0002C13.3335 13.1429 13.3335 14.7142 14.3098 15.6905C15.2861 16.6668 16.8575 16.6668 20.0002 16.6668C23.1428 16.6668 24.7142 16.6668 25.6905 15.6905C26.6668 14.7142 26.6668 13.1429 26.6668 10.0002C26.6668 6.85746 26.6668 5.28611 25.6905 4.30981C24.7142 3.3335 23.1428 3.3335 20.0002 3.3335C16.8575 3.3335 15.2861 3.3335 14.3098 4.30981Z" stroke="#47A76F" stroke-width="2.5" stroke-linecap="round" stroke-linejoin="round"/>
<path d="M6.6665 36.6668V19.9513C6.6665 14.4355 6.6665 11.6776 8.37505 9.9641C9.46092 8.87505 10.9674 8.47815 13.3332 8.3335M33.3332 36.6668V19.9513C33.3332 14.4355 33.3332 11.6776 31.6247 9.9641C30.5387 8.87505 29.0322 8.47815 26.6665 8.3335" stroke="#47A76F" stroke-width="2.5" stroke-linecap="round" stroke-linejoin="round"/>
<path d="M5 36.6665H35" stroke="#47A76F" stroke-width="2.5" stroke-linecap="round" stroke-linejoin="round"/>
<path d="M15.8335 36.6668V32.5002C15.8335 30.9425 15.8335 30.1637 16.1684 29.5835C16.3878 29.2035 16.7035 28.8878 17.0835 28.6685C17.6637 28.3335 18.4425 28.3335 20.0002 28.3335C21.5578 28.3335 22.3367 28.3335 22.9168 28.6685C23.2968 28.8878 23.6125 29.2035 23.8318 29.5835C24.1668 30.1637 24.1668 30.9425 24.1668 32.5002V36.6668" stroke="#47A76F" stroke-width="2.5" stroke-linecap="round"/>
<path d="M13.3484 21.6665H13.3335M20.0002 21.6665H19.9852M26.6687 21.6665H26.6538" stroke="#47A76F" stroke-width="2.5" stroke-linecap="round" stroke-linejoin="round"/>
</svg>
