<svg width="40" height="40" viewBox="0 0 40 40" fill="none" xmlns="http://www.w3.org/2000/svg">
<path d="M31.1814 5.82573C28.0274 4.25653 24.1681 3.3335 19.9999 3.3335C15.8318 3.3335 11.9725 4.25653 8.8186 5.82573C7.27197 6.59526 6.49865 6.98003 5.74933 8.1898C5 9.39958 5 10.571 5 12.9137V18.7287C5 28.201 12.5706 33.4675 16.9551 35.7232C18.1778 36.3523 18.7891 36.6668 19.9999 36.6668C21.2108 36.6668 21.8221 36.3523 23.0449 35.7232C27.4294 33.4675 34.9999 28.201 34.9999 18.7287V12.9137C34.9999 10.571 34.9999 9.3996 34.2506 8.1898C33.5013 6.98001 32.7279 6.59526 31.1814 5.82573Z" stroke="#47A76F" stroke-width="2.5" stroke-linecap="round" stroke-linejoin="round"/>
<path d="M19.9998 18.3332C21.8408 18.3332 23.3331 16.8408 23.3331 14.9998C23.3331 13.1589 21.8408 11.6665 19.9998 11.6665C18.1589 11.6665 16.6665 13.1589 16.6665 14.9998C16.6665 16.8408 18.1589 18.3332 19.9998 18.3332ZM19.9998 18.3332V22.4998M19.9998 22.4998V24.9998C19.9998 25.9203 20.7461 26.6665 21.6664 26.6665H23.3331M19.9998 22.4998H22.4998" stroke="#47A76F" stroke-width="2.5" stroke-linecap="round" stroke-linejoin="round"/>
</svg>
