<svg width="49" height="49" viewBox="0 0 49 49" fill="none" xmlns="http://www.w3.org/2000/svg">
<path d="M23.4793 12.25C14.3361 12.25 9.76441 12.25 6.92394 14.642C4.0835 17.0339 4.0835 20.8838 4.0835 28.5833C4.0835 36.2829 4.0835 40.1328 6.92394 42.5247C9.76441 44.9167 14.3361 44.9167 23.4793 44.9167C32.6225 44.9167 37.1942 44.9167 40.0348 42.5247C42.8752 40.1328 42.8752 36.2829 42.8752 28.5833C42.8752 26.195 42.8752 24.1772 42.7904 22.4583" stroke="#47A76F" stroke-width="3.0625" stroke-linecap="round"/>
<path d="M37.7708 4.08331L38.2974 5.50642C38.9879 7.37248 39.3331 8.30552 40.0138 8.98615C40.6945 9.6668 41.6275 10.012 43.4936 10.7026L44.9167 11.2291L43.4936 11.7557C41.6275 12.4462 40.6945 12.7915 40.0138 13.4721C39.3331 14.1528 38.9879 15.0858 38.2974 16.9519L37.7708 18.375L37.2443 16.9519C36.5538 15.0858 36.2085 14.1528 35.5279 13.4721C34.8472 12.7915 33.9141 12.4462 32.048 11.7557L30.625 11.2291L32.048 10.7026C33.9141 10.012 34.8472 9.6668 35.5279 8.98615C36.2085 8.30552 36.5538 7.37248 37.2443 5.50642L37.7708 4.08331Z" stroke="#47A76F" stroke-width="3.0625" stroke-linejoin="round"/>
<path d="M24.5 20.4167V36.75" stroke="#47A76F" stroke-width="3.0625" stroke-linecap="round" stroke-linejoin="round"/>
<path d="M18.375 24.5V32.6667" stroke="#47A76F" stroke-width="3.0625" stroke-linecap="round" stroke-linejoin="round"/>
<path d="M12.25 26.5417V30.625" stroke="#47A76F" stroke-width="3.0625" stroke-linecap="round" stroke-linejoin="round"/>
<path d="M30.625 24.5V32.6667" stroke="#47A76F" stroke-width="3.0625" stroke-linecap="round" stroke-linejoin="round"/>
<path d="M36.75 26.5417V30.625" stroke="#47A76F" stroke-width="3.0625" stroke-linecap="round" stroke-linejoin="round"/>
</svg>
