<svg width="49" height="49" viewBox="0 0 49 49" fill="none" xmlns="http://www.w3.org/2000/svg">
<path d="M8.1665 24.5V29.6944C8.1665 36.3196 8.1665 39.6322 9.97556 41.876C10.341 42.3292 10.7539 42.7421 11.2072 43.1075C13.451 44.9166 16.7636 44.9166 23.3888 44.9166C24.8294 44.9166 25.5495 44.9166 26.2091 44.6839C26.3463 44.6355 26.4807 44.5798 26.6119 44.5171C27.243 44.2151 27.7522 43.7059 28.7708 42.6873L38.4412 33.017C39.6214 31.8367 40.2115 31.2467 40.5224 30.4961C40.8332 29.7458 40.8332 28.9112 40.8332 27.2421V20.4166C40.8332 12.717 40.8332 8.86724 38.4412 6.47527C36.0493 4.08331 32.1994 4.08331 24.4998 4.08331M26.5415 43.8958V42.875C26.5415 37.1003 26.5415 34.213 28.3355 32.419C30.1295 30.625 33.0169 30.625 38.7915 30.625H39.8123" stroke="#47A76F" stroke-width="3.0625" stroke-linecap="round" stroke-linejoin="round"/>
<path d="M20.4165 10.2083C19.2122 8.96935 16.0071 4.08331 14.2915 4.08331C12.576 4.08331 9.37076 8.96935 8.1665 10.2083M14.2915 6.12498V20.4166" stroke="#47A76F" stroke-width="3.0625" stroke-linecap="round" stroke-linejoin="round"/>
</svg>
