<svg width="49" height="49" viewBox="0 0 49 49" fill="none" xmlns="http://www.w3.org/2000/svg">
<path d="M36.7498 36.75H12.2498C9.99467 36.75 8.1665 38.5781 8.1665 40.8333C8.1665 43.0886 9.99467 44.9167 12.2498 44.9167H36.7498C39.0051 44.9167 40.8332 43.0886 40.8332 40.8333C40.8332 38.5781 39.0051 36.75 36.7498 36.75Z" stroke="#47A76F" stroke-width="3.0625" stroke-linecap="round" stroke-linejoin="round"/>
<path d="M19.3957 17.3541C20.5233 17.3541 21.4373 16.4401 21.4373 15.3125C21.4373 14.1849 20.5233 13.2708 19.3957 13.2708M19.3957 17.3541C18.2681 17.3541 17.354 16.4401 17.354 15.3125C17.354 14.1849 18.2681 13.2708 19.3957 13.2708M19.3957 17.3541V13.2708M16.3332 25.5208H22.4582M14.2915 27.5625V26.5416C14.2915 24.2864 16.1197 22.4583 18.3748 22.4583H20.4165C22.6717 22.4583 24.4998 24.2864 24.4998 26.5416V27.5625H14.2915Z" stroke="#47A76F" stroke-width="3.0625" stroke-linecap="round" stroke-linejoin="round"/>
<path d="M29.6042 17.3541C30.7318 17.3541 31.6458 16.4401 31.6458 15.3125C31.6458 14.1849 30.7318 13.2708 29.6042 13.2708M29.6042 17.3541C28.4766 17.3541 27.5625 16.4401 27.5625 15.3125C27.5625 14.1849 28.4766 13.2708 29.6042 13.2708M29.6042 17.3541V13.2708M29.6042 25.5208H32.6667M29.6042 27.5625H34.7083V26.5416C34.7083 24.2864 32.8802 22.4583 30.625 22.4583H29.6042V27.5625Z" stroke="#47A76F" stroke-width="3.0625" stroke-linecap="round" stroke-linejoin="round"/>
<path d="M33.6875 40.8333V40.8537" stroke="#47A76F" stroke-width="3.0625" stroke-linecap="round" stroke-linejoin="round"/>
<path d="M27.5625 40.8333V40.8537" stroke="#47A76F" stroke-width="3.0625" stroke-linecap="round" stroke-linejoin="round"/>
<path d="M40.8332 40.8333V16.3333C40.8332 10.5586 40.8332 7.67126 39.0392 5.87728C37.2451 4.08331 34.3578 4.08331 28.5832 4.08331H20.4165C14.6418 4.08331 11.7544 4.08331 9.96048 5.87728C8.1665 7.67126 8.1665 10.5586 8.1665 16.3333V40.8333" stroke="#47A76F" stroke-width="3.0625" stroke-linecap="round" stroke-linejoin="round"/>
</svg>
