<svg width="49" height="49" viewBox="0 0 49 49" fill="none" xmlns="http://www.w3.org/2000/svg">
<path d="M38.1973 7.1363C34.3336 5.21403 29.6059 4.08331 24.4999 4.08331C19.394 4.08331 14.6663 5.21403 10.8028 7.1363C8.90816 8.07898 7.96085 8.55032 7.04293 10.0323C6.125 11.5143 6.125 12.9492 6.125 15.8191V22.9424C6.125 34.546 15.399 40.9975 20.77 43.7607C22.2678 44.5314 23.0166 44.9166 24.4999 44.9166C25.9832 44.9166 26.7321 44.5314 28.23 43.7607C33.6011 40.9975 42.8749 34.546 42.8749 22.9424V15.8191C42.8749 12.9492 42.8749 11.5143 41.957 10.0323C41.0391 8.5503 40.0917 8.07898 38.1973 7.1363Z" stroke="#47A76F" stroke-width="3.0625" stroke-linecap="round" stroke-linejoin="round"/>
<path d="M24.4998 22.4584C26.755 22.4584 28.5831 20.6302 28.5831 18.375C28.5831 16.1199 26.755 14.2917 24.4998 14.2917C22.2447 14.2917 20.4165 16.1199 20.4165 18.375C20.4165 20.6302 22.2447 22.4584 24.4998 22.4584ZM24.4998 22.4584V27.5625M24.4998 27.5625V30.625C24.4998 31.7526 25.414 32.6667 26.5414 32.6667H28.5831M24.4998 27.5625H27.5623" stroke="#47A76F" stroke-width="3.0625" stroke-linecap="round" stroke-linejoin="round"/>
</svg>
