<svg width="88" height="14" viewBox="0 0 88 14" fill="none" xmlns="http://www.w3.org/2000/svg">
<path d="M6.05447 1.5487C6.36712 0.9152 7.27048 0.915199 7.58313 1.5487L8.62448 3.6587C8.74864 3.91026 8.98863 4.08463 9.26625 4.12497L11.5948 4.46332C12.2939 4.56491 12.573 5.42405 12.0672 5.91717L10.3822 7.55957C10.1813 7.75539 10.0897 8.03751 10.1371 8.31401L10.5348 10.6331C10.6543 11.3294 9.92344 11.8604 9.29813 11.5316L7.21543 10.4367C6.96712 10.3062 6.67048 10.3062 6.42217 10.4367L4.33947 11.5316C3.71417 11.8604 2.98334 11.3294 3.10276 10.6331L3.50052 8.31401C3.54794 8.03751 3.45627 7.75539 3.25539 7.55957L1.57045 5.91717C1.06457 5.42405 1.34372 4.56491 2.04284 4.46332L4.37136 4.12497C4.64898 4.08463 4.88897 3.91026 5.01312 3.6587L6.05447 1.5487Z" fill="#F6AC56"/>
<path d="M24.4646 1.5487C24.7773 0.9152 25.6806 0.915199 25.9933 1.5487L27.0346 3.6587C27.1588 3.91026 27.3988 4.08463 27.6764 4.12497L30.0049 4.46332C30.704 4.56491 30.9832 5.42405 30.4773 5.91717L28.7924 7.55957C28.5915 7.75539 28.4998 8.03751 28.5472 8.31401L28.945 10.6331C29.0644 11.3294 28.3336 11.8604 27.7083 11.5316L25.6256 10.4367C25.3773 10.3062 25.0806 10.3062 24.8323 10.4367L22.7496 11.5316C22.1243 11.8604 21.3935 11.3294 21.5129 10.6331L21.9107 8.31401C21.9581 8.03751 21.8664 7.75539 21.6655 7.55957L19.9806 5.91717C19.4747 5.42405 19.7539 4.56491 20.453 4.46332L22.7815 4.12497C23.0591 4.08463 23.2991 3.91026 23.4233 3.6587L24.4646 1.5487Z" fill="#F6AC56"/>
<path d="M42.8748 1.5487C43.1874 0.9152 44.0908 0.915199 44.4034 1.5487L45.4448 3.6587C45.5689 3.91026 45.8089 4.08463 46.0866 4.12497L48.4151 4.46332C49.1142 4.56491 49.3933 5.42405 48.8875 5.91717L47.2025 7.55957C47.0016 7.75539 46.91 8.03751 46.9574 8.31401L47.3552 10.6331C47.4746 11.3294 46.7437 11.8604 46.1184 11.5316L44.0357 10.4367C43.7874 10.3062 43.4908 10.3062 43.2425 10.4367L41.1598 11.5316C40.5345 11.8604 39.8036 11.3294 39.9231 10.6331L40.3208 8.31401C40.3683 8.03751 40.2766 7.75539 40.0757 7.55957L38.3908 5.91717C37.8849 5.42405 38.164 4.56491 38.8631 4.46332L41.1917 4.12497C41.4693 4.08463 41.7093 3.91026 41.8334 3.6587L42.8748 1.5487Z" fill="#F6AC56"/>
<path d="M61.2874 1.5487C61.6 0.9152 62.5034 0.915199 62.816 1.5487L63.8574 3.6587C63.9815 3.91026 64.2215 4.08463 64.4992 4.12497L66.8277 4.46332C67.5268 4.56491 67.8059 5.42405 67.3001 5.91717L65.6151 7.55957C65.4142 7.75539 65.3226 8.03751 65.37 8.31401L65.7678 10.6331C65.8872 11.3294 65.1563 11.8604 64.531 11.5316L62.4483 10.4367C62.2 10.3062 61.9034 10.3062 61.6551 10.4367L59.5724 11.5316C58.9471 11.8604 58.2162 11.3294 58.3357 10.6331L58.7334 8.31401C58.7809 8.03751 58.6892 7.75539 58.4883 7.55957L56.8034 5.91717C56.2975 5.42405 56.5766 4.56491 57.2757 4.46332L59.6043 4.12497C59.8819 4.08463 60.1219 3.91026 60.246 3.6587L61.2874 1.5487Z" fill="#F6AC56"/>
<path d="M79.697 1.5487C80.0097 0.9152 80.9131 0.915199 81.2257 1.5487L82.2671 3.6587C82.3912 3.91026 82.6312 4.08463 82.9088 4.12497L85.2373 4.46332C85.9365 4.56491 86.2156 5.42405 85.7097 5.91717L84.0248 7.55957C83.8239 7.75539 83.7322 8.03751 83.7797 8.31401L84.1774 10.6331C84.2968 11.3294 83.566 11.8604 82.9407 11.5316L80.858 10.4367C80.6097 10.3062 80.3131 10.3062 80.0647 10.4367L77.9821 11.5316C77.3567 11.8604 76.6259 11.3294 76.7453 10.6331L77.1431 8.31401C77.1905 8.03751 77.0989 7.75539 76.898 7.55957L75.213 5.91717C74.7071 5.42405 74.9863 4.56491 75.6854 4.46332L78.0139 4.12497C78.2916 4.08463 78.5315 3.91026 78.6557 3.6587L79.697 1.5487Z" fill="#F6AC56"/>
</svg>
