<svg width="20" height="20" viewBox="0 0 20 20" fill="none" xmlns="http://www.w3.org/2000/svg">
<path d="M9.7435 16.2389H17.051M2.43604 16.2389H3.79567C4.19286 16.2389 4.39145 16.2389 4.57834 16.1941C4.74403 16.1543 4.90244 16.0887 5.04773 15.9996C5.2116 15.8992 5.35203 15.7588 5.63289 15.4779L15.8331 5.27771C16.5057 4.60507 16.5057 3.51451 15.8331 2.84188C15.1605 2.16924 14.0699 2.16924 13.3973 2.84188L3.19704 13.0421C2.91618 13.323 2.77576 13.4634 2.67533 13.6273C2.5863 13.7726 2.52068 13.931 2.4809 14.0967C2.43604 14.2835 2.43604 14.4821 2.43604 14.8793V16.2389Z" stroke="#4B5563" stroke-width="1.82687" stroke-linecap="round" stroke-linejoin="round"/>
</svg>
