<svg width="18" height="18" viewBox="0 0 18 18" fill="none" xmlns="http://www.w3.org/2000/svg">
<path d="M6.68479 4.16966L6.39086 3.50833C6.19868 3.07591 6.10258 2.8597 5.95887 2.69424C5.77877 2.48687 5.544 2.33431 5.28137 2.25395C5.0718 2.18982 4.8352 2.18982 4.36199 2.18982C3.66976 2.18982 3.32365 2.18982 3.0331 2.32289C2.69085 2.47963 2.38175 2.81999 2.2586 3.17572C2.15405 3.4777 2.18401 3.78804 2.24389 4.40871C2.8814 11.0153 6.50344 14.6373 13.11 15.2749C13.7307 15.3347 14.0411 15.3646 14.343 15.2601C14.6988 15.137 15.0391 14.8279 15.1959 14.4856C15.3289 14.1951 15.3289 13.8489 15.3289 13.1567C15.3289 12.6835 15.3289 12.447 15.2648 12.2374C15.1844 11.9747 15.0318 11.74 14.8245 11.5598C14.6591 11.4162 14.4428 11.32 14.0104 11.1278L13.349 10.8339C12.8808 10.6258 12.6466 10.5217 12.4087 10.4991C12.181 10.4774 11.9514 10.5094 11.7382 10.5924C11.5155 10.6791 11.3187 10.8431 10.925 11.1713C10.5331 11.4978 10.3372 11.6611 10.0978 11.7485C9.88549 11.8261 9.60489 11.8548 9.38137 11.8219C9.12917 11.7847 8.93609 11.6815 8.54986 11.4751C7.34833 10.833 6.68572 10.1704 6.0436 8.96887C5.83721 8.58264 5.73402 8.38957 5.69686 8.13736C5.66392 7.91385 5.69263 7.63325 5.77017 7.42097C5.85764 7.18155 6.02092 6.98562 6.3475 6.59372C6.67557 6.20004 6.8396 6.00319 6.92633 5.78047C7.00933 5.56734 7.04128 5.33774 7.01962 5.11005C6.99699 4.87211 6.89292 4.63796 6.68479 4.16966Z" stroke="#6FCF97" stroke-width="1.09495" stroke-linecap="round"/>
</svg>
