<svg width="16" height="16" viewBox="0 0 16 16" fill="none" xmlns="http://www.w3.org/2000/svg">
<path d="M8.99968 10.6668V9.37491C10.1869 8.44571 10.9997 7.33337 10.9997 4.94458C10.9997 3.39817 10.7176 2.00004 9.02534 2.00004C9.02534 2.00004 8.42854 1.33337 6.99454 1.33337C4.9695 1.33337 3.66634 2.55135 3.66634 4.94458C3.66634 7.33337 4.47912 8.44577 5.66634 9.37491V10.6668L3.18902 11.412C2.26407 11.695 1.57696 12.437 1.34884 13.3401C1.25864 13.6972 1.56706 14.0001 1.93727 14.0001H9.39541" stroke="#F41400" stroke-linecap="round" stroke-linejoin="round"/>
<path d="M11.333 14.6667L12.9997 13M12.9997 13L14.6663 11.3334M12.9997 13L11.333 11.3334M12.9997 13L14.6663 14.6667" stroke="#F41400" stroke-linecap="round" stroke-linejoin="round"/>
</svg>
