<svg width="16" height="16" viewBox="0 0 16 16" fill="none" xmlns="http://www.w3.org/2000/svg">
<path d="M12.4726 2.33015C11.211 1.70247 9.66724 1.33325 7.99997 1.33325C6.33273 1.33325 4.789 1.70247 3.52744 2.33015C2.90879 2.63796 2.59946 2.79187 2.29973 3.27577C2 3.75969 2 4.22824 2 5.16534V7.49132C2 11.2803 5.02823 13.3869 6.78204 14.2891C7.27111 14.5408 7.51564 14.6666 7.99997 14.6666C8.48431 14.6666 8.72884 14.5408 9.21797 14.2891C10.9718 13.3869 14 11.2803 14 7.49132V5.16534C14 4.22825 14 3.75969 13.7002 3.27577C13.4005 2.79186 13.0912 2.63796 12.4726 2.33015Z" stroke="#47A76F" stroke-linecap="round" stroke-linejoin="round"/>
<path d="M7.99981 7.33341C8.73621 7.33341 9.33314 6.73648 9.33314 6.00008C9.33314 5.2637 8.73621 4.66675 7.99981 4.66675C7.26348 4.66675 6.6665 5.2637 6.6665 6.00008C6.6665 6.73648 7.26348 7.33341 7.99981 7.33341ZM7.99981 7.33341V9.00008M7.99981 9.00008V10.0001C7.99981 10.3683 8.29834 10.6667 8.66648 10.6667H9.33314M7.99981 9.00008H8.99981" stroke="#47A76F" stroke-linecap="round" stroke-linejoin="round"/>
</svg>
