<svg width="18" height="18" viewBox="0 0 18 18" fill="none" xmlns="http://www.w3.org/2000/svg">
<path d="M11.3149 8.02962C11.3149 6.61859 10.171 5.47473 8.75997 5.47473C7.34894 5.47473 6.20508 6.61859 6.20508 8.02962C6.20508 9.44066 7.34894 10.5845 8.75997 10.5845C10.171 10.5845 11.3149 9.44066 11.3149 8.02962Z" stroke="#6FCF97" stroke-width="1.09495" stroke-linecap="round" stroke-linejoin="round"/>
<path d="M11.3026 8.28501C11.5376 8.35625 11.7869 8.39458 12.0452 8.39458C13.4562 8.39458 14.6001 7.25071 14.6001 5.83968C14.6001 4.42865 13.4562 3.28479 12.0452 3.28479C10.7204 3.28479 9.63104 4.29317 9.50293 5.58429" stroke="#6FCF97" stroke-width="1.09495" stroke-linecap="round" stroke-linejoin="round"/>
<path d="M8.01806 5.58429C7.88995 4.29317 6.80063 3.28479 5.47579 3.28479C4.06476 3.28479 2.9209 4.42865 2.9209 5.83968C2.9209 7.25071 4.06476 8.39458 5.47579 8.39458C5.73406 8.39458 5.98338 8.35625 6.21837 8.28501" stroke="#6FCF97" stroke-width="1.09495" stroke-linecap="round" stroke-linejoin="round"/>
<path d="M16.0598 12.0445C16.0598 10.0288 14.2623 8.39465 12.0449 8.39465" stroke="#6FCF97" stroke-width="1.09495" stroke-linecap="round" stroke-linejoin="round"/>
<path d="M12.7748 14.2343C12.7748 12.2186 10.9773 10.5845 8.75995 10.5845C6.54262 10.5845 4.74512 12.2186 4.74512 14.2343" stroke="#6FCF97" stroke-width="1.09495" stroke-linecap="round" stroke-linejoin="round"/>
<path d="M5.47479 8.39465C3.25746 8.39465 1.45996 10.0288 1.45996 12.0445" stroke="#6FCF97" stroke-width="1.09495" stroke-linecap="round" stroke-linejoin="round"/>
</svg>
